<svg width="136" height="136" viewBox="0 0 136 136" fill="none" xmlns="http://www.w3.org/2000/svg">
<circle cx="68" cy="68" r="68" fill="#00A9E2"/>
<path d="M61.7577 53.8819C63.8392 54.47 66.5886 54.7938 69.4992 54.7938C72.4099 54.7938 75.1593 54.47 77.2408 53.8819C79.7874 53.1626 81.0786 52.1212 81.0786 50.787C81.0786 49.4527 79.7874 48.4114 77.2408 47.6921C76.0771 47.3633 74.7041 47.1176 73.2114 46.9644C76.1346 41.9752 79.0313 36.3259 79.0313 33.532C79.0313 28.276 74.7553 24 69.4992 24C64.2432 24 59.9672 28.276 59.9672 33.532C59.9672 36.3258 62.8639 41.975 65.787 46.9642C64.2943 47.1174 62.9215 47.3633 61.7578 47.6921C59.2112 48.4114 57.9199 49.4527 57.9199 50.787C57.9199 52.1212 59.2111 53.1625 61.7577 53.8819ZM69.4992 26.0508C73.6245 26.0508 76.9805 29.4068 76.9805 33.532C76.9805 35.6508 74.3588 41.2052 69.9675 48.3899C69.8225 48.6272 69.5917 48.6528 69.4992 48.6528C69.4068 48.6528 69.1759 48.6272 69.0308 48.3899C64.6396 41.2052 62.0179 35.6509 62.0179 33.532C62.018 29.4068 65.374 26.0508 69.4992 26.0508ZM62.6876 49.5656C63.9102 49.2542 65.3751 49.0357 66.9541 48.922C67.0637 49.1027 67.1727 49.282 67.2811 49.4592C67.7572 50.2384 68.5864 50.7034 69.4992 50.7034C70.412 50.7034 71.2411 50.2383 71.7173 49.4592C71.8257 49.2819 71.9348 49.1027 72.0443 48.9219C73.6234 49.0356 75.0882 49.2542 76.3109 49.5656C78.185 50.0429 78.8697 50.5803 79.0104 50.7869C78.8696 50.9935 78.1851 51.5309 76.3109 52.0082C74.4507 52.4821 72.0315 52.743 69.4992 52.743C66.9669 52.743 64.5477 52.4821 62.6875 52.0082C60.8134 51.5309 60.1287 50.9935 59.988 50.7869C60.1288 50.5803 60.8134 50.043 62.6876 49.5656Z" fill="white"/>
<path d="M84.0147 48.5391C83.5182 48.2664 82.8948 48.4477 82.6223 48.944C82.3496 49.4404 82.5309 50.0638 83.0272 50.3364C84.2487 51.0074 84.9492 51.7513 84.9492 52.3774C84.9492 53.1431 83.8644 54.3298 80.8194 55.3643C77.8113 56.3864 73.7913 56.9492 69.5 56.9492C65.2087 56.9492 61.1887 56.3864 58.1806 55.3643C55.1356 54.3298 54.0508 53.1431 54.0508 52.3774C54.0508 51.7513 54.7513 51.0074 55.9728 50.3364C56.4691 50.0637 56.6504 49.4403 56.3777 48.9439C56.105 48.4477 55.4818 48.2663 54.9853 48.539C53.6235 49.2872 52 50.5604 52 52.3774C52 53.7701 52.9579 55.7558 57.5208 57.3061C60.7359 58.3984 64.9902 58.9999 69.5 58.9999C74.0098 58.9999 78.2641 58.3984 81.4792 57.3061C86.0421 55.7558 87 53.7701 87 52.3774C87 50.5604 85.3765 49.2872 84.0147 48.5391Z" fill="white"/>
<path d="M73.3316 32.8776C73.3316 30.7651 71.6129 29.0464 69.5003 29.0464C67.3877 29.0464 65.6689 30.7651 65.6689 32.8776C65.6689 34.9902 67.3877 36.7088 69.5003 36.7088C71.6129 36.7088 73.3316 34.9902 73.3316 32.8776ZM67.7197 32.8776C67.7197 31.8959 68.5185 31.0972 69.5003 31.0972C70.4821 31.0972 71.2808 31.8959 71.2808 32.8776C71.2808 33.8593 70.4821 34.6581 69.5003 34.6581C68.5185 34.6581 67.7197 33.8594 67.7197 32.8776Z" fill="white"/>
<path d="M75.2688 73.065C75.2688 73.385 75.2188 73.675 75.1188 73.935C75.0188 74.195 74.8588 74.425 74.6388 74.625C74.4288 74.815 74.1488 74.965 73.7988 75.075C73.4488 75.175 73.0288 75.225 72.5388 75.225H67.3188L66.7038 78.84C67.1138 78.77 67.5088 78.72 67.8888 78.69C68.2688 78.65 68.6388 78.63 68.9988 78.63C70.1488 78.63 71.1638 78.805 72.0438 79.155C72.9238 79.505 73.6638 79.985 74.2638 80.595C74.8638 81.195 75.3138 81.905 75.6138 82.725C75.9238 83.535 76.0788 84.405 76.0788 85.335C76.0788 86.505 75.8688 87.575 75.4488 88.545C75.0388 89.505 74.4638 90.335 73.7238 91.035C72.9838 91.735 72.0988 92.28 71.0688 92.67C70.0488 93.05 68.9288 93.24 67.7088 93.24C66.9988 93.24 66.3188 93.165 65.6688 93.015C65.0288 92.865 64.4238 92.665 63.8538 92.415C63.2938 92.155 62.7738 91.86 62.2938 91.53C61.8138 91.19 61.3788 90.83 60.9888 90.45L62.4288 88.53C62.5788 88.33 62.7538 88.18 62.9538 88.08C63.1538 87.97 63.3688 87.915 63.5988 87.915C63.8988 87.915 64.1788 88 64.4388 88.17C64.7088 88.33 64.9988 88.51 65.3088 88.71C65.6288 88.9 65.9988 89.075 66.4188 89.235C66.8388 89.395 67.3588 89.475 67.9788 89.475C68.5988 89.475 69.1288 89.375 69.5688 89.175C70.0088 88.965 70.3638 88.685 70.6338 88.335C70.9138 87.975 71.1138 87.56 71.2338 87.09C71.3638 86.61 71.4288 86.1 71.4288 85.56C71.4288 84.5 71.1288 83.695 70.5288 83.145C69.9288 82.585 69.0788 82.305 67.9788 82.305C66.9988 82.305 66.0388 82.49 65.0988 82.86L62.2188 82.08L64.0788 71.145H75.2688V73.065ZM51.2272 107.78C51.3072 107.78 51.3797 107.812 51.4447 107.877L52.0147 108.5C51.5747 109.01 51.0397 109.407 50.4097 109.692C49.7847 109.978 49.0297 110.12 48.1447 110.12C47.3697 110.12 46.6672 109.988 46.0372 109.722C45.4072 109.452 44.8697 109.077 44.4247 108.597C43.9797 108.112 43.6347 107.532 43.3897 106.857C43.1447 106.182 43.0222 105.44 43.0222 104.63C43.0222 103.82 43.1522 103.077 43.4122 102.402C43.6772 101.727 44.0472 101.147 44.5222 100.662C44.9972 100.177 45.5647 99.8025 46.2247 99.5375C46.8897 99.2675 47.6222 99.1325 48.4222 99.1325C49.2122 99.1325 49.8922 99.255 50.4622 99.5C51.0372 99.745 51.5472 100.077 51.9922 100.497L51.5197 101.165C51.4847 101.215 51.4447 101.257 51.3997 101.292C51.3547 101.322 51.2897 101.337 51.2047 101.337C51.1397 101.337 51.0697 101.315 50.9947 101.27C50.9247 101.22 50.8397 101.16 50.7397 101.09C50.6397 101.02 50.5222 100.945 50.3872 100.865C50.2522 100.785 50.0922 100.71 49.9072 100.64C49.7222 100.57 49.5072 100.512 49.2622 100.467C49.0172 100.417 48.7347 100.392 48.4147 100.392C47.8397 100.392 47.3122 100.492 46.8322 100.692C46.3572 100.887 45.9472 101.167 45.6022 101.532C45.2572 101.897 44.9872 102.342 44.7922 102.867C44.6022 103.392 44.5072 103.98 44.5072 104.63C44.5072 105.3 44.6022 105.897 44.7922 106.422C44.9872 106.947 45.2497 107.392 45.5797 107.757C45.9147 108.117 46.3097 108.392 46.7647 108.582C47.2197 108.772 47.7097 108.867 48.2347 108.867C48.5547 108.867 48.8422 108.85 49.0972 108.815C49.3522 108.775 49.5872 108.715 49.8022 108.635C50.0222 108.555 50.2247 108.455 50.4097 108.335C50.5997 108.21 50.7897 108.062 50.9797 107.892C51.0647 107.817 51.1472 107.78 51.2272 107.78ZM59.2907 110H58.6982C58.5682 110 58.4632 109.98 58.3832 109.94C58.3032 109.9 58.2507 109.815 58.2257 109.685L58.0757 108.98C57.8757 109.16 57.6807 109.322 57.4907 109.467C57.3007 109.607 57.1007 109.727 56.8907 109.827C56.6807 109.922 56.4557 109.995 56.2157 110.045C55.9807 110.095 55.7182 110.12 55.4282 110.12C55.1332 110.12 54.8557 110.08 54.5957 110C54.3407 109.915 54.1182 109.79 53.9282 109.625C53.7382 109.46 53.5857 109.252 53.4707 109.002C53.3607 108.747 53.3057 108.447 53.3057 108.102C53.3057 107.802 53.3882 107.515 53.5532 107.24C53.7182 106.96 53.9832 106.712 54.3482 106.497C54.7182 106.282 55.2007 106.107 55.7957 105.972C56.3907 105.833 57.1182 105.752 57.9782 105.732V105.14C57.9782 104.55 57.8507 104.105 57.5957 103.805C57.3457 103.5 56.9732 103.347 56.4782 103.347C56.1532 103.347 55.8782 103.39 55.6532 103.475C55.4332 103.555 55.2407 103.647 55.0757 103.752C54.9157 103.852 54.7757 103.945 54.6557 104.03C54.5407 104.11 54.4257 104.15 54.3107 104.15C54.2207 104.15 54.1407 104.127 54.0707 104.082C54.0057 104.032 53.9532 103.972 53.9132 103.902L53.6732 103.475C54.0932 103.07 54.5457 102.767 55.0307 102.567C55.5157 102.367 56.0532 102.267 56.6432 102.267C57.0682 102.267 57.4457 102.337 57.7757 102.477C58.1057 102.617 58.3832 102.812 58.6082 103.062C58.8332 103.312 59.0032 103.615 59.1182 103.97C59.2332 104.325 59.2907 104.715 59.2907 105.14V110ZM55.8257 109.182C56.0607 109.182 56.2757 109.16 56.4707 109.115C56.6657 109.065 56.8482 108.997 57.0182 108.912C57.1932 108.822 57.3582 108.715 57.5132 108.59C57.6732 108.465 57.8282 108.322 57.9782 108.162V106.58C57.3632 106.6 56.8407 106.65 56.4107 106.73C55.9807 106.805 55.6307 106.905 55.3607 107.03C55.0907 107.155 54.8932 107.302 54.7682 107.472C54.6482 107.642 54.5882 107.832 54.5882 108.042C54.5882 108.242 54.6207 108.415 54.6857 108.56C54.7507 108.705 54.8382 108.825 54.9482 108.92C55.0582 109.01 55.1882 109.077 55.3382 109.122C55.4882 109.162 55.6507 109.182 55.8257 109.182ZM61.3133 110V102.402H62.1083C62.2983 102.402 62.4183 102.495 62.4683 102.68L62.5658 103.46C62.8458 103.115 63.1583 102.832 63.5033 102.612C63.8533 102.392 64.2583 102.282 64.7183 102.282C65.2333 102.282 65.6483 102.425 65.9633 102.71C66.2833 102.995 66.5133 103.38 66.6533 103.865C66.7583 103.59 66.8958 103.352 67.0658 103.152C67.2408 102.952 67.4358 102.787 67.6508 102.657C67.8658 102.527 68.0933 102.432 68.3333 102.372C68.5783 102.312 68.8258 102.282 69.0758 102.282C69.4758 102.282 69.8308 102.347 70.1408 102.477C70.4558 102.602 70.7208 102.787 70.9358 103.032C71.1558 103.277 71.3233 103.58 71.4383 103.94C71.5533 104.295 71.6108 104.702 71.6108 105.162V110H70.2758V105.162C70.2758 104.567 70.1458 104.117 69.8858 103.812C69.6258 103.502 69.2483 103.347 68.7533 103.347C68.5333 103.347 68.3233 103.387 68.1233 103.467C67.9283 103.542 67.7558 103.655 67.6058 103.805C67.4558 103.955 67.3358 104.145 67.2458 104.375C67.1608 104.6 67.1183 104.862 67.1183 105.162V110H65.7833V105.162C65.7833 104.552 65.6608 104.097 65.4158 103.797C65.1708 103.497 64.8133 103.347 64.3433 103.347C64.0133 103.347 63.7058 103.437 63.4208 103.617C63.1408 103.792 62.8833 104.032 62.6483 104.337V110H61.3133ZM73.6326 112.573V102.402H74.4276C74.6176 102.402 74.7376 102.495 74.7876 102.68L74.9001 103.58C75.2251 103.185 75.5951 102.867 76.0101 102.627C76.4301 102.387 76.9126 102.267 77.4576 102.267C77.8926 102.267 78.2876 102.352 78.6426 102.522C78.9976 102.687 79.3001 102.935 79.5501 103.265C79.8001 103.59 79.9926 103.995 80.1276 104.48C80.2626 104.965 80.3301 105.522 80.3301 106.152C80.3301 106.712 80.2551 107.235 80.1051 107.72C79.9551 108.2 79.7401 108.617 79.4601 108.972C79.1801 109.322 78.8351 109.6 78.4251 109.805C78.0201 110.005 77.5626 110.105 77.0526 110.105C76.5826 110.105 76.1801 110.027 75.8451 109.872C75.5151 109.717 75.2226 109.497 74.9676 109.212V112.573H73.6326ZM77.0151 103.347C76.5801 103.347 76.1976 103.447 75.8676 103.647C75.5426 103.847 75.2426 104.13 74.9676 104.495V108.17C75.2126 108.5 75.4801 108.732 75.7701 108.867C76.0651 109.002 76.3926 109.07 76.7526 109.07C77.4576 109.07 78.0001 108.817 78.3801 108.312C78.7601 107.807 78.9501 107.087 78.9501 106.152C78.9501 105.657 78.9051 105.232 78.8151 104.877C78.7301 104.522 78.6051 104.232 78.4401 104.007C78.2751 103.777 78.0726 103.61 77.8326 103.505C77.5926 103.4 77.3201 103.347 77.0151 103.347ZM83.064 102.402V107.247C83.064 107.822 83.1965 108.267 83.4615 108.582C83.7265 108.897 84.1265 109.055 84.6615 109.055C85.0515 109.055 85.419 108.962 85.764 108.777C86.109 108.592 86.4265 108.335 86.7165 108.005V102.402H88.0515V110H87.2565C87.0665 110 86.9465 109.907 86.8965 109.722L86.7915 108.905C86.4615 109.27 86.0915 109.565 85.6815 109.79C85.2715 110.01 84.8015 110.12 84.2715 110.12C83.8565 110.12 83.489 110.053 83.169 109.917C82.854 109.777 82.589 109.582 82.374 109.332C82.159 109.082 81.9965 108.78 81.8865 108.425C81.7815 108.07 81.729 107.677 81.729 107.247V102.402H83.064ZM94.5939 103.655C94.5339 103.765 94.4414 103.82 94.3164 103.82C94.2414 103.82 94.1564 103.792 94.0614 103.737C93.9664 103.682 93.8489 103.622 93.7089 103.557C93.5739 103.487 93.4114 103.425 93.2214 103.37C93.0314 103.31 92.8064 103.28 92.5464 103.28C92.3214 103.28 92.1189 103.31 91.9389 103.37C91.7589 103.425 91.6039 103.502 91.4739 103.602C91.3489 103.702 91.2514 103.82 91.1814 103.955C91.1164 104.085 91.0839 104.227 91.0839 104.382C91.0839 104.577 91.1389 104.74 91.2489 104.87C91.3639 105 91.5139 105.112 91.6989 105.207C91.8839 105.302 92.0939 105.387 92.3289 105.462C92.5639 105.532 92.8039 105.61 93.0489 105.695C93.2989 105.775 93.5414 105.865 93.7764 105.965C94.0114 106.065 94.2214 106.19 94.4064 106.34C94.5914 106.49 94.7389 106.675 94.8489 106.895C94.9639 107.11 95.0214 107.37 95.0214 107.675C95.0214 108.025 94.9589 108.35 94.8339 108.65C94.7089 108.945 94.5239 109.202 94.2789 109.422C94.0339 109.637 93.7339 109.807 93.3789 109.932C93.0239 110.058 92.6139 110.12 92.1489 110.12C91.6189 110.12 91.1389 110.035 90.7089 109.865C90.2789 109.69 89.9139 109.467 89.6139 109.197L89.9289 108.687C89.9689 108.622 90.0164 108.572 90.0714 108.537C90.1264 108.502 90.1989 108.485 90.2889 108.485C90.3789 108.485 90.4739 108.52 90.5739 108.59C90.6739 108.66 90.7939 108.737 90.9339 108.822C91.0789 108.907 91.2514 108.985 91.4514 109.055C91.6564 109.125 91.9114 109.16 92.2164 109.16C92.4764 109.16 92.7039 109.127 92.8989 109.062C93.0939 108.992 93.2564 108.9 93.3864 108.785C93.5164 108.67 93.6114 108.537 93.6714 108.387C93.7364 108.237 93.7689 108.077 93.7689 107.907C93.7689 107.697 93.7114 107.525 93.5964 107.39C93.4864 107.25 93.3389 107.132 93.1539 107.037C92.9689 106.937 92.7564 106.852 92.5164 106.782C92.2814 106.707 92.0389 106.63 91.7889 106.55C91.5439 106.47 91.3014 106.38 91.0614 106.28C90.8264 106.175 90.6164 106.045 90.4314 105.89C90.2464 105.735 90.0964 105.545 89.9814 105.32C89.8714 105.09 89.8164 104.812 89.8164 104.487C89.8164 104.197 89.8764 103.92 89.9964 103.655C90.1164 103.385 90.2914 103.15 90.5214 102.95C90.7514 102.745 91.0339 102.582 91.3689 102.463C91.7039 102.342 92.0864 102.282 92.5164 102.282C93.0164 102.282 93.4639 102.362 93.8589 102.522C94.2589 102.677 94.6039 102.892 94.8939 103.167L94.5939 103.655Z" fill="white"/>
</svg>
