<svg width="26" height="26" viewBox="0 0 26 26" fill="none" xmlns="http://www.w3.org/2000/svg">
<path d="M15.3364 14.9764L14.3423 16.8801C14.2335 17.0886 13.9862 17.1829 13.7661 17.0997C11.5215 16.25 9.74981 14.4779 8.90081 12.2331C8.81761 12.013 8.91192 11.7657 9.12048 11.6568L11.0241 10.6632L10.4238 7.26199C9.70492 6.85732 8.82532 6.86481 8.11325 7.28126C7.40118 7.69771 6.96364 8.46079 6.96387 9.28576C6.96999 14.6679 11.3317 19.0296 16.7139 19.0358C17.5384 19.0358 18.3012 18.5985 18.7177 17.8866C19.1341 17.175 19.1418 16.2956 18.7376 15.5767L15.3364 14.9764Z" fill="#4F4F4F"/>
<path d="M13 0C5.82035 0 0 5.82035 0 13C0 20.1797 5.82035 26 13 26C20.1797 26 26 20.1797 26 13C25.9918 5.82375 20.1763 0.00816127 13 0ZM16.7143 19.9643C10.8194 19.9577 6.04229 15.1806 6.03571 9.28571C6.03594 8.08374 6.6995 6.97993 7.76092 6.41589C8.82256 5.85209 10.1086 5.9201 11.1048 6.59295C11.2091 6.66323 11.2802 6.77295 11.302 6.89696L11.9984 10.8373C12.0336 11.0368 11.9356 11.2358 11.7561 11.3294L9.92683 12.285C10.6749 13.9762 12.0261 15.328 13.7168 16.0768L14.6715 14.2453C14.7651 14.0657 14.9641 13.9678 15.1636 14.0029L19.1044 14.6994C19.2282 14.7211 19.3377 14.7921 19.408 14.8961C20.0804 15.8923 20.1481 17.1783 19.5841 18.2395C19.0198 19.301 17.9163 19.9643 16.7143 19.9643Z" fill="#4F4F4F"/>
</svg>
