<svg width="41" height="31" viewBox="0 0 41 31" fill="none" xmlns="http://www.w3.org/2000/svg">
<path d="M24.779 28.5791L26.4906 30L32.7257 23.0808L33.3981 22.8336L37.5549 20.6096L39.2665 17.15C39.6577 16.2603 39.9185 14.2258 40 13.3197L39.2665 11.5899L38.105 10.8485H35.3542L33.3981 10.1689L31.0141 8.37735L29.6693 7.88311L26.7962 5.90618C25.6226 4.27522 23.0878 2.50833 21.9671 1.82876C19.1796 0.790875 12.1254 0.943263 8.94671 1.14919L5.09561 2.19944C3.87304 3.08905 2.18182 5.2472 1.48903 6.21507L1 9.98359L3.07837 13.505C4.93668 15.2348 7.43887 18.5091 8.45768 19.93L11.0862 22.463L13.9592 24.8106L19.8887 25.3666L23.1285 26.355L24.779 28.5791Z" stroke="white" stroke-width="2" stroke-linejoin="round"/>
</svg>
