<svg width="34" height="46" viewBox="0 0 34 46" fill="none" xmlns="http://www.w3.org/2000/svg">
<path d="M3.53968 42.5281L1 44.5056L4.04762 45L6.07937 44.5056L8.49206 42.5281L10.3968 43.2697L12.0476 41.5393L13.0635 43.2697L17.254 42.5281L22.4603 35.6067H23.7302L25 36.8427L33 33.8764L31.3492 27.9438L25 23.4944L28.8095 15.0899L27.7937 12L25 8.41573L23.7302 1.86517L14.7143 1L12.0476 3.22472L13.0635 4.21348L10.3968 5.32584L9.63492 7.42697V9.89888L6.07937 13.3596L7.34921 14.1011L4.68254 17.5618V19.0449V24.6067L6.07937 25.9663V27.9438V30.2921L4.68254 31.0337V35.6067L1 39.809L3.53968 42.5281Z" stroke="white" stroke-width="2" stroke-linejoin="round"/>
</svg>
